<?xml version="1.0" encoding="utf-8"?>
<!-- Svg Vector Icons : http://www.onlinewebfonts.com/icon -->
<!DOCTYPE svg PUBLIC "-//W3C//DTD SVG 1.1//EN" "http://www.w3.org/Graphics/SVG/1.1/DTD/svg11.dtd">
<svg version="1.1" xmlns="http://www.w3.org/2000/svg" xmlns:xlink="http://www.w3.org/1999/xlink" x="0px" y="0px" viewBox="0 0 1000 1000" enable-background="new 0 0 1000 1000" xml:space="preserve">
<metadata> Svg Vector Icons : http://www.onlinewebfonts.com/icon </metadata>
<g><g><path d="M647.7,656.2c-31.4,0-56.8-25.4-56.8-56.8v-88.1c0-28.8,23.2-49,51.7-45.1l79.5,13c28.6,3.9,39.3-12.7,23.9-37.1L523,87.5c-15.3-24.4-40.2-24.4-55.5,0L244.5,442.1c-15.3,24.4-4.6,41,23.9,37.1l79.5-13c28.5-3.9,51.7,16.2,51.7,45.1v88.1c0,31.4-25.4,56.8-56.8,56.8h-276C35.4,656.2,10,681.6,10,713v161c0,31.4,25.4,56.8,56.8,56.8h866.4c31.4,0,56.8-25.4,56.8-56.8V713c0-31.4-25.4-56.8-56.8-56.8H647.7z M848,855H152c-31.4,0-56.8-25.4-56.8-56.8v-9.5c0-31.4,25.4-56.8,56.8-56.8h190.8c31.4,0,56.8,5.3,56.8,11.8v11.8c0,28.8,23.3,52.2,52.2,52.2h86.9c28.8,0,52.2-23.3,52.2-52.2c0,0,0-5.3,0-11.8c0-6.5,25.4-11.8,56.8-11.8H848c31.4,0,56.8,25.4,56.8,56.8v9.5C904.8,829.6,879.3,855,848,855z"/></g><g></g><g></g><g></g><g></g><g></g><g></g><g></g><g></g><g></g><g></g><g></g><g></g><g></g><g></g><g></g></g>
</svg>