<?xml version="1.0" encoding="UTF-8" standalone="no"?>
<!-- Created with Inkscape (http://www.inkscape.org/) -->

<svg
   xmlns:dc="http://purl.org/dc/elements/1.1/"
   xmlns:cc="http://creativecommons.org/licenses/by-sa/3.0/"
   xmlns:rdf="http://www.w3.org/1999/02/22-rdf-syntax-ns#"
   xmlns:svg="http://www.w3.org/2000/svg"
   xmlns="http://www.w3.org/2000/svg"
   version="1.1"
   width="400"
   height="300"
   id="svg">
  <defs
     id="defs4">
    <marker
       refX="0"
       refY="0"
       orient="auto"
       id="Arrow2Lstart"
       style="overflow:visible">
      <path
         d="M 8.7185878,4.0337352 -2.2072895,0.01601326 8.7185884,-4.0017078 c -1.7454984,2.3720609 -1.7354408,5.6174519 -6e-7,8.035443 z"
         transform="matrix(1.1,0,0,1.1,1.1,0)"
         id="path3821"
         style="fill-rule:evenodd;stroke-width:0.625;stroke-linejoin:round" />
    </marker>
    <marker
       refX="0"
       refY="0"
       orient="auto"
       id="Arrow2Lend"
       style="overflow:visible">
      <path
         d="M 8.7185878,4.0337352 -2.2072895,0.01601326 8.7185884,-4.0017078 c -1.7454984,2.3720609 -1.7354408,5.6174519 -6e-7,8.035443 z"
         transform="matrix(-1.1,0,0,-1.1,-1.1,0)"
         id="path3824"
         style="fill-rule:evenodd;stroke-width:0.625;stroke-linejoin:round" />
    </marker>
  </defs>
  <metadata
     id="metadata">
    <rdf:RDF>
      <cc:Work
         rdf:about="http://commons.wikimedia.org/wiki/File:Radio_contol_pulse_scheme.svg">
        <dc:format>image/svg+xml</dc:format>
        <dc:type
           rdf:resource="http://purl.org/dc/dcmitype/StillImage" />
        <dc:title>Radio contol pulse scheme</dc:title>
      </cc:Work>
    </rdf:RDF>
  </metadata>
  <g
     id="layer1">
    <rect
       width="400"
       height="300"
       x="0"
       y="0"
       id="bg"
       style="fill:#ffffff;stroke:none" />
    <g
       transform="translate(0.5,-9.5)"
       id="g">
      <path
         d="m 85,70 v 20 m 30,30 v 20 m 55,30 v 20 m 45,30 v 20 M 385,70 v 20"
         id="path1"
         style="fill:none;stroke:#aaaaaa;stroke-width:0.5;stroke-linecap:butt;stroke-linejoin:miter;stroke-miterlimit:4;stroke-dasharray:none" />
      <path
         d="m 10,70 30,0 0,-30 45,0 0,30 255,0 0,-30 45,0 0,30 5,0"
         id="path2"
         style="fill:none;stroke:#000000;stroke-width:1px;stroke-linecap:square;stroke-linejoin:miter" />
      <path
         d="m 10,120 75,0 0,-30 30,0 0,30 270,0 0,-30 5,0"
         id="path3"
         style="fill:none;stroke:#000000;stroke-width:1px;stroke-linecap:square;stroke-linejoin:miter" />
      <path
         d="m 10,170 105,0 0,-30 55,0 0,30 220,0"
         id="path4"
         style="fill:none;stroke:#000000;stroke-width:1px;stroke-linecap:square;stroke-linejoin:miter" />
      <path
         d="m 10,220 160,0 0,-30 45,0 0,30 175,0"
         id="path5"
         style="fill:none;stroke:#000000;stroke-width:1px;stroke-linecap:square;stroke-linejoin:miter" />
      <path
         d="m 10,270 205,0 0,-30 40,0 0,30 135,0"
         id="path6"
         style="fill:none;stroke:#000000;stroke-width:1px;stroke-linecap:square;stroke-linejoin:miter" />
      <path
         d="M 40,280 40,30"
         id="path7"
         style="fill:none;stroke:#000000;stroke-width:2;stroke-linecap:butt;stroke-linejoin:miter;stroke-miterlimit:4;stroke-dasharray:8, 8;stroke-dashoffset:0" />
      <path
         d="M 340,280 340,30"
         id="path8"
         style="fill:none;stroke:#000000;stroke-width:2;stroke-linecap:butt;stroke-linejoin:miter;stroke-miterlimit:4;stroke-dasharray:8, 8;stroke-dashoffset:0" />
      <path
         d="m 40,285 140,0"
         id="path9"
         style="fill:none;stroke:#000000;stroke-width:0.8;stroke-linecap:butt;stroke-linejoin:miter;stroke-miterlimit:4;stroke-dasharray:none;marker-start:url(#Arrow2Lstart);marker-mid:none;marker-end:none" />
      <path
         d="m 220,285 120,0"
         id="path9-2"
         style="fill:none;stroke:#000000;stroke-width:0.8;stroke-linecap:butt;stroke-linejoin:miter;stroke-miterlimit:4;stroke-dasharray:none;marker-start:none;marker-mid:none;marker-end:url(#Arrow2Lend)" />
      <path
         d="m 115,155 10,0"
         id="path10"
         style="fill:none;stroke:#000000;stroke-width:0.8;stroke-linecap:butt;stroke-linejoin:miter;stroke-miterlimit:4;stroke-dasharray:none;marker-start:url(#Arrow2Lstart);marker-mid:none;marker-end:none" />
      <path
         d="m 160,155 10,0"
         id="path10-2"
         style="fill:none;stroke:#000000;stroke-width:0.8;stroke-linecap:butt;stroke-linejoin:miter;stroke-miterlimit:4;stroke-dasharray:none;marker-start:none;marker-mid:none;marker-end:url(#Arrow2Lend)" />
      <path
         d="m 27.5,276.5 a 1,1 0 1 1 -2,0 1,1 0 1 1 2,0 z"
         transform="translate(-4.5,3.5)"
         id="path11"
         style="fill:#000000;stroke:none" />
      <path
         d="m 27.5,276.5 a 1,1 0 1 1 -2,0 1,1 0 1 1 2,0 z"
         transform="translate(-4.5,9.5)"
         id="path12"
         style="fill:#000000;stroke:none" />
      <path
         d="m 27.5,276.5 a 1,1 0 1 1 -2,0 1,1 0 1 1 2,0 z"
         transform="translate(-4.5,15.5)"
         id="path13"
         style="fill:#000000;stroke:none" />
      <text
         x="6"
         y="60"
         id="text1"
         xml:space="preserve"
         style="font-size:12px;font-style:normal;font-weight:normal;text-align:start;letter-spacing:0px;word-spacing:0px;text-anchor:start;fill:#000000;stroke:none;font-family:Bitstream Vera Sans"><tspan
           x="6"
           y="60">Ch 1</tspan></text>
      <text
         x="6"
         y="110"
         id="text2"
         xml:space="preserve"
         style="font-size:12px;font-style:normal;font-weight:normal;text-align:start;letter-spacing:0px;word-spacing:0px;text-anchor:start;fill:#000000;stroke:none;font-family:Bitstream Vera Sans"><tspan
           x="6"
           y="110">Ch 2</tspan></text>
      <text
         x="6"
         y="160"
         id="text3"
         xml:space="preserve"
         style="font-size:12px;font-style:normal;font-weight:normal;text-align:start;letter-spacing:0px;word-spacing:0px;text-anchor:start;fill:#000000;stroke:none;font-family:Bitstream Vera Sans"><tspan
           x="6"
           y="160">Ch 3</tspan></text>
      <text
         x="6"
         y="210"
         id="text4"
         xml:space="preserve"
         style="font-size:12px;font-style:normal;font-weight:normal;text-align:start;letter-spacing:0px;word-spacing:0px;text-anchor:start;fill:#000000;stroke:none;font-family:Bitstream Vera Sans"><tspan
           x="6"
           y="210">Ch 4</tspan></text>
      <text
         x="6"
         y="260"
         id="text5"
         xml:space="preserve"
         style="font-size:12px;font-style:normal;font-weight:normal;text-align:start;letter-spacing:0px;word-spacing:0px;text-anchor:start;fill:#000000;stroke:none;font-family:Bitstream Vera Sans"><tspan
           x="6"
           y="260">Ch 5</tspan></text>
      <text
         x="143.5"
         y="152"
         id="text6"
         xml:space="preserve"
         style="font-size:12px;font-style:normal;font-weight:normal;text-align:center;line-height:70%;letter-spacing:0px;word-spacing:0px;text-anchor:middle;fill:#000000;stroke:none;font-family:Bitstream Vera Sans"><tspan
           x="143.5"
           y="152">1ms</tspan><tspan
           x="143.5"
           y="160.4">-</tspan><tspan
           x="143.5"
           y="168.8">2ms</tspan></text>
      <text
         x="192"
         y="160"
         id="text9"
         xml:space="preserve"
         style="font-size:12px;font-style:normal;font-weight:normal;text-align:center;letter-spacing:0px;word-spacing:0px;text-anchor:middle;fill:#000000;stroke:none;font-family:Bitstream Vera Sans"><tspan
           x="192"
           y="160">PWM</tspan></text>
      <text
         x="201"
         y="290"
         id="text10"
         xml:space="preserve"
         style="font-size:12px;font-style:normal;font-weight:normal;text-align:center;letter-spacing:0px;word-spacing:0px;text-anchor:middle;fill:#000000;stroke:none;font-family:Bitstream Vera Sans"><tspan
           x="201"
           y="290">22ms</tspan></text>
    </g>
  </g>
</svg>
